<?xml version="1.0" encoding="UTF-8" standalone="no"?>
<!-- Created with Inkscape (http://www.inkscape.org/) -->

<svg
   xmlns:dc="http://purl.org/dc/elements/1.1/"
   xmlns:cc="http://creativecommons.org/ns#"
   xmlns:rdf="http://www.w3.org/1999/02/22-rdf-syntax-ns#"
   xmlns:svg="http://www.w3.org/2000/svg"
   xmlns="http://www.w3.org/2000/svg"
   xmlns:sodipodi="http://sodipodi.sourceforge.net/DTD/sodipodi-0.dtd"
   xmlns:inkscape="http://www.inkscape.org/namespaces/inkscape"
   version="1.1"
   id="svg2"
   width="192"
   height="192"
   viewBox="0 0 192 192"
   sodipodi:docname="Merge.svg"
   inkscape:version="0.92.4 (5da689c313, 2019-01-14)">
  <metadata
     id="metadata8">
    <rdf:RDF>
      <cc:Work
         rdf:about="">
        <dc:format>image/svg+xml</dc:format>
        <dc:type
           rdf:resource="http://purl.org/dc/dcmitype/StillImage" />
        <dc:title />
      </cc:Work>
    </rdf:RDF>
  </metadata>
  <defs
     id="defs6" />
  <sodipodi:namedview
     pagecolor="#ffffff"
     bordercolor="#666666"
     borderopacity="1"
     objecttolerance="10"
     gridtolerance="10"
     guidetolerance="10"
     inkscape:pageopacity="0"
     inkscape:pageshadow="2"
     inkscape:window-width="1311"
     inkscape:window-height="627"
     id="namedview4"
     showgrid="false"
     inkscape:zoom="0.86915209"
     inkscape:cx="-110.67539"
     inkscape:cy="105.7073"
     inkscape:window-x="523"
     inkscape:window-y="319"
     inkscape:window-maximized="0"
     inkscape:current-layer="svg2" />
  <rect
     style="fill:#ff9f00;fill-opacity:1;stroke:none;stroke-width:0.93619841;stroke-opacity:1"
     id="rect4521"
     width="192"
     height="192"
     x="0"
     y="2.3841858e-06" />
  <path
     style="fill:#1a1a1a;fill-opacity:1;stroke-width:0.53407556"
     d="m 0,95.999995 v -96 h 96 96 v 96 V 192 H 96 0 Z m 189.3259,0 V 3.200005 H 96 2.67409 V 95.999995 188.8 H 96 189.3259 Z M 52.03711,174.42159 c -2.90442,-1.76601 -4.25988,-5.98097 -3.09766,-9.63261 1.12642,-3.5392 6.25233,-5.73647 10.03587,-4.30197 1.12249,0.42559 1.8183,0.0331 5.51671,-3.112 4.88805,-4.15671 10.9431,-8.71023 19.39573,-14.58595 4.8498,-3.37127 5.96182,-4.38892 5.96182,-5.45587 0,-2.87755 1.56704,-5.41003 4.24798,-6.86512 2.94276,-1.5972 4.45966,-1.73378 6.64323,-0.59812 0.84255,0.4382 1.77751,0.79672 2.0777,0.79672 0.30019,0 3.22087,-1.54816 6.49039,-3.44034 3.26954,-1.89218 9.22214,-5.01119 13.22803,-6.93114 7.15527,-3.42937 7.28908,-3.52553 7.60468,-5.46499 0.17669,-1.0858 0.26852,-2.0177 0.20404,-2.07089 -0.0644,-0.0532 -4.07087,0.78221 -8.90311,1.85644 -8.60757,1.91351 -8.7962,1.98525 -9.29387,3.53536 -0.91368,2.84583 -2.92344,4.97498 -5.29786,5.61256 -2.78556,0.748 -4.91658,0.3386 -7.17359,-1.37812 l -1.76032,-1.33894 -8.71332,3.1825 c -4.79232,1.75037 -12.42724,4.85495 -16.96649,6.89905 l -8.25318,3.71656 -0.60896,2.39171 c -0.8418,3.30615 -2.09263,5.01886 -4.35325,5.96078 -5.61798,2.34083 -10.95029,-1.23236 -10.84888,-7.26982 0.0503,-2.997 1.38101,-5.22516 4.01242,-6.71861 2.61713,-1.48535 3.96458,-1.5057 6.72464,-0.10152 l 2.17646,1.10725 2.74931,-1.17053 c 1.51214,-0.64378 5.39668,-2.37857 8.63234,-3.85508 3.23565,-1.47652 9.93923,-4.15574 14.89684,-5.95382 l 9.01384,-3.26926 0.72114,-2.11625 c 1.82154,-5.34535 8.3425,-7.11525 12.3666,-3.35647 l 1.16556,1.0887 6.85673,-1.65104 c 3.7712,-0.90808 10.3449,-2.35306 14.60824,-3.21108 5.60359,-1.12775 7.90065,-1.8144 8.2897,-2.47798 1.49421,-2.54861 3.09075,-3.88504 5.30555,-4.441185 1.30659,-0.32809 2.81413,-0.45423 3.35007,-0.2803 2.44752,0.794235 4.39878,2.114645 5.25098,3.553295 1.2946,2.18549 1.21108,6.28111 -0.17328,8.4973 -1.43644,2.29957 -2.80349,3.08735 -6.01592,3.46676 -2.47756,0.29262 -2.63327,0.40247 -2.63327,1.85796 0,2.34757 -1.83404,5.43924 -3.87776,6.5368 -2.267,1.21747 -7.32927,0.97079 -8.88468,-0.43292 -0.96687,-0.87259 -1.41846,-0.72027 -9.91718,3.34502 -11.80363,5.64616 -16.89697,8.85552 -16.89697,10.64693 0,2.39618 -2.03772,5.77237 -4.06211,6.73035 -2.9405,1.39147 -5.18567,1.56778 -7.13879,0.56058 -1.73237,-0.89335 -1.7525,-0.88875 -4.76245,1.08814 -5.27979,3.46768 -18.93446,13.38401 -22.63008,16.43449 -3.46495,2.86006 -3.55515,2.99763 -3.28461,5.00911 0.35744,2.6575 -1.36492,6.16267 -3.73686,7.60489 -2.24731,1.36646 -5.99724,1.36767 -8.24215,0.003 z M 40.40582,118.91727 c -4.33427,-2.76069 -4.22931,-10.33346 0.1792,-12.92938 2.63595,-1.55216 5.17545,-1.68387 7.65153,-0.39685 1.24173,0.64544 2.51405,1.52313 2.82737,1.95043 0.48831,0.66593 2.93256,0.25383 17.11297,-2.88531 l 16.54329,-3.66221 0.66,-1.612975 c 1.09286,-2.67088 4.16147,-4.98098 6.61646,-4.98098 2.49686,0 6.20641,1.3682 6.6194,2.44144 0.16054,0.41721 0.69773,0.75856 1.19375,0.75856 0.49601,0 6.77891,-1.25058 13.96199,-2.77907 l 13.06015,-2.77907 0.7623,-1.8194 c 0.41928,-1.00066 0.76231,-1.91008 0.76231,-2.02092 0,-0.11085 -3.51078,-0.20154 -7.80171,-0.20154 h -7.80173 l -2.23952,2.46677 c -1.98567,2.18714 -2.54775,2.49629 -4.95865,2.7273 -3.29001,0.31525 -5.86978,-0.74898 -7.41566,-3.05917 l -1.06963,-1.5985 -16.86519,-0.002 -16.86519,-0.002 -0.92459,1.56085 c -0.50851,0.85845 -1.78261,2.08966 -2.83132,2.736 -2.44945,1.50963 -6.64423,1.17883 -8.64181,-0.6815 -4.2232,-3.93304 -3.57168,-10.99348 1.19785,-12.98078 3.83655,-1.59856 8.13245,-0.47259 10.19947,2.67331 l 0.8928,1.35879 H 79.74782 96.264 l 2.57747,-2.66667 c 2.51788,-2.60499 2.65007,-2.66666 5.71562,-2.66666 3.06557,0 3.19777,0.0617 5.71564,2.66666 l 2.57748,2.66667 h 13.59976 13.59975 l 1.14821,-1.60805 c 3.01188,-4.21803 9.82108,-4.17433 12.97723,0.0833 2.20994,2.98117 0.94707,9.0405 -2.29705,11.0214 -1.92129,1.17316 -6.18765,1.43628 -7.66256,0.47257 -1.26624,-0.82738 -1.29401,-0.8099 -1.58845,0.99942 -0.71008,4.36358 -4.14445,6.893235 -8.83229,6.505565 -2.47994,-0.20509 -3.18526,-0.51288 -4.47568,-1.953115 l -1.53183,-1.70965 -12.68473,2.71509 c -6.97661,1.493315 -13.22624,2.940595 -13.88809,3.216205 -0.68939,0.28708 -1.20334,0.96491 -1.20334,1.58703 0,0.59726 -0.81928,1.97745 -1.82063,3.06707 -1.74195,1.89552 -1.97175,1.98162 -5.31713,1.99217 -3.20584,0.0102 -3.64357,-0.1296 -5.26572,-1.68066 l -1.76922,-1.69168 -11.76602,2.62311 c -23.96382,5.34247 -21.54882,4.64058 -21.93056,6.37383 -0.18676,0.84795 -1.17337,2.27178 -2.19247,3.16406 -1.61973,1.41819 -2.23753,1.61745 -4.90951,1.58338 -2.02413,-0.0258 -3.58943,-0.37839 -4.63406,-1.04374 z M 78.10323,77.999995 c -1.09657,-1.1 -2.0911,-2.27416 -2.21006,-2.60925 -0.13891,-0.39128 -3.52426,-0.82948 -9.46242,-1.2248 -8.99039,-0.59853 -19.35542,-1.90183 -27.259,-3.42755 l -3.88119,-0.74923 -1.91505,1.51767 c -2.48946,1.97287 -3.55555,2.27483 -6.4849,1.83676 -4.06382,-0.60771 -6.97081,-4.77955 -6.27917,-9.01129 0.62924,-3.84996 3.73297,-6.19897 8.19068,-6.19897 2.21819,0 2.96197,0.27622 4.57251,1.69813 1.05789,0.93397 1.92711,2.07397 1.93161,2.53334 0.0217,2.20833 0.466,2.33955 15.50156,4.57767 4.85348,0.72247 12.37662,1.56372 16.71808,1.86945 l 7.89357,0.55586 2.00543,-2.10229 c 3.5972,-3.77094 8.73243,-3.53654 12.01312,0.54834 l 1.74863,2.17728 7.75487,-0.3455 c 8.11652,-0.36161 19.78331,-1.25336 21.72617,-1.66065 1.00596,-0.21088 2.81955,-3.15188 2.27716,-3.69276 -0.11414,-0.11381 -2.68147,-0.8323 -5.7052,-1.59665 l -5.49769,-1.38972 -1.85767,1.41298 c -4.51261,3.43238 -11.0144,1.36972 -12.37078,-3.92457 -0.42898,-1.67446 -0.70417,-1.82679 -7.40449,-4.09916 -7.47964,-2.53666 -18.78913,-7.00251 -25.59637,-10.10743 -4.59443,-2.09559 -5.94544,-2.29386 -7.52293,-1.10403 -1.75237,1.32176 -5.20683,0.98514 -7.59507,-0.74009 -6.22989,-4.50037 -3.09379,-13.94354 4.63068,-13.94354 4.19281,0 7.47887,3.14009 7.47887,7.14666 0,1.03064 0.97365,1.65288 6.55153,4.18699 6.71132,3.04904 13.75737,5.82986 24.28134,9.58301 l 5.96381,2.12685 2.04893,-1.38842 c 3.73865,-2.53343 9.24526,-1.41282 11.34242,2.30821 0.63502,1.12673 1.15458,2.40616 1.15458,2.84316 0,1.21083 18.04944,5.59919 26.88178,6.53577 3.43671,0.36443 3.66944,0.31728 4.66512,-0.94501 3.48688,-4.42054 10.44045,-3.44099 13.08385,1.84312 0.45587,0.91128 0.82887,2.34957 0.82887,3.19619 0,4.24763 -4.50877,8.2926 -8.62912,7.74148 -2.54797,-0.3408 -5.41805,-2.41108 -6.30593,-4.54865 -0.50482,-1.21534 -1.09499,-1.64201 -2.61876,-1.89327 -3.24903,-0.53572 -3.30399,-0.50364 -3.30614,1.93058 -0.001,1.30824 -0.44455,2.99049 -1.04865,3.97849 -1.24279,2.0326 -4.62671,3.88897 -7.08403,3.88618 -1.80887,-0.002 -5.01814,-1.63063 -6.0877,-3.08928 -0.53364,-0.72778 -1.55503,-0.75041 -8.83397,-0.19572 -4.5268,0.34498 -11.65786,0.62567 -15.8468,0.62378 l -7.61625,-0.003 -1.20004,1.82559 c -1.66618,2.53446 -3.56462,3.50749 -6.84382,3.50749 -2.51093,0 -2.98647,-0.19889 -4.78197,-2 z"
     id="path823"
     inkscape:connector-curvature="0" />
</svg>
